<?xml version="1.0" encoding="utf-8"?>
<!-- Generator: Adobe Illustrator 25.1.0, SVG Export Plug-In . SVG Version: 6.00 Build 0)  -->
<svg version="1.1" id="Calque_1" xmlns="http://www.w3.org/2000/svg" xmlns:xlink="http://www.w3.org/1999/xlink" x="0px" y="0px"
	 viewBox="0 0 1920 341.5" style="enable-background:new 0 0 1920 341.5;" xml:space="preserve">
<style type="text/css">
	.st0{fill:#FFFFFF;}
</style>
<g>
	<g>
		<path class="st0" d="M580.9,265.2c-6.3,0-11.3-2.1-15.2-6.4c-3.9-4.3-5.8-10.8-5.8-19.6c0-4.8,0.6-10.3,1.9-16.6l14.7-67.7
			c2.3-11.1,2.1-19.4-0.6-25.1c-2.7-5.6-8.1-8.5-16-8.5c-9.8,0-18.4,4.3-25.8,13s-13.5,20-18.3,34l-18.1,93.4l-27,0l20.6-108.1
			c2.1-10.9,1.6-18.9-1.4-24.3c-3-5.3-8-8-14.9-8c-5.2,0-10.5,1.7-15.8,5c-5.3,3.3-11.1,10-17.2,20.1s-12.2,24.5-18.3,43.2
			l-13.7,72.1l-27.3,0l20.6-107.2c1.5-8.4,2.2-14.7,2.3-19.1c0.1-4.4-0.5-7.7-1.9-10c-1.4-2.3-3.5-4.7-6.4-7.2l0.3-1.6l41.3-15.1
			h1.6l-8.7,46.1h1.6c7.3-16.5,15.3-28.3,23.9-35.4c8.6-7.1,18.8-10.7,30.6-10.7c10.4,0,18.4,3.3,23.8,10c5.4,6.7,7.9,16.3,7.2,28.8
			h1.6c6.3-11.9,13.4-21.4,21.3-28.4c7.9-7,18-10.5,30.4-10.5c10,0,18.1,3,24.1,8.9c6.1,6,9.1,15.2,9.1,27.7c0,6.5-0.9,14-2.8,22.6
			L585.9,236c-1.2,5.4-1.4,9.3-0.5,11.6c0.9,2.3,2.7,3.4,5.2,3.4c4,0,7.8-2.9,11.4-8.6c3.6-5.7,7.5-14.2,11.4-25.2h5.3
			c-4,13-7.8,22.9-11.6,29.8c-3.7,6.9-7.7,11.6-11.9,14.3C591.1,263.8,586.3,265.1,580.9,265.2z"/>
		<path class="st0" d="M683.7,265.1c-10,0-17.9-3-23.7-8.9c-5.8-6-8.6-15-8.6-27.1c0-6.3,0.7-13,2.2-20.1l11.2-56.7
			c1.5-7.5,2.2-13.3,2.2-17.4c0-4.1-0.6-7.3-1.9-9.5c-1.3-2.3-3.3-4.7-6.3-7.2l0.3-1.6l41.3-15.1h1.6L679.6,215
			c-2.1,10.2-1.7,17.9,1.1,22.9c2.8,5,7.4,7.5,13.6,7.5c6.5,0,13.1-3,19.9-9.1c6.8-6.1,13.9-16,21.3-29.8
			c7.4-13.8,14.6-31.9,21.4-54.2l9.4-47.3l27.3,0l-25.3,126.6c-1.5,6.9-1.8,11.9-1.1,14.9c0.7,3,2.7,4.5,5.8,4.5
			c3.8,0,7.5-2.9,11.3-8.8c3.7-5.8,7.5-14.2,11.3-25.1h5.3c-5.2,18.4-10.7,31-16.6,37.8c-5.8,6.8-12.4,10.2-19.7,10.2
			c-6.7,0-12.2-2.2-16.5-6.6c-4.3-4.4-6.4-11.3-6.4-20.7c0-4,0.5-9.1,1.6-15.4l5-26h-1.6c-9,23.2-18.3,40.4-28.2,51.7
			C708.6,259.4,697.1,265.1,683.7,265.1z"/>
		<path class="st0" d="M872,264.9c-10.7,0-20.7-1.7-30.1-5.1c-9.4-3.4-17.7-8.4-24.8-14.9l8.1-42.6h3.1c0,10.2,2.1,19.5,6.1,27.9
			c4.1,8.4,9.5,14.9,16.3,19.7c6.8,4.8,14.3,7.2,22.4,7.2c8.4,0,15.1-2.4,20.2-7.2c5.1-4.8,7.7-10.9,7.7-18.2
			c0-3.8-0.9-7.5-2.7-11.1c-1.8-3.7-4.6-7.6-8.5-11.8c-3.9-4.2-9.1-9.2-15.8-15c-9-7.7-15.9-14.1-20.9-19.1
			c-4.9-5-8.8-10.1-11.6-15.4s-4.2-11-4.2-17.2c0-12.3,4.7-22.2,14.2-29.6c9.5-7.4,21.2-11.1,34.9-11.2c9.2,0,17.8,1.4,25.9,4.2
			c8.1,2.8,14.7,6.3,19.9,10.5l-7.2,36.7h-3.1c-0.4-13.8-4.1-24.5-11-32.3c-6.9-7.7-15.7-11.6-26.3-11.6c-7.9,0-14.4,2.1-19.4,6.3
			c-5,4.2-7.5,9.8-7.5,16.9c0,3.6,0.8,6.7,2.4,9.4c1.6,2.7,4.5,6.1,8.6,10c4.2,4,11.1,9.9,20.7,17.8c11.5,9.4,19.9,17.6,25.1,24.7
			c5.2,7.1,7.8,15.7,7.9,25.7c0,14.2-4.5,25.3-13.6,33.2C899.7,260.9,887.5,264.9,872,264.9z"/>
		<path class="st0" d="M984.8,264.8c-6.9,0-12.4-2.1-16.6-6.4c-4.2-4.3-6.3-11.2-6.3-20.8c0-3.6,0.5-8.5,1.6-14.7l13.1-68.6
			c1.5-8.2,2.2-14.4,2.2-18.8c0-4.4-0.6-7.8-1.9-10.2c-1.3-2.4-3.3-4.9-6.3-7.4l0.3-1.6l41.3-15.1h1.6l-25,130
			c-1.2,7.1-1.6,12.1-0.9,15.1c0.6,2.9,2.5,4.4,5.7,4.4c3.7,0,7.5-2.9,11.1-8.6c3.6-5.7,7.5-14.2,11.4-25.2h5.3
			c-5.4,18.6-11,31.2-16.9,37.9C998.7,261.5,992.1,264.8,984.8,264.8z M1006,82.8c-4.8,0-8.8-1.6-11.9-4.8
			c-3.1-3.2-4.7-7.2-4.7-11.8c0-3.6,0.9-6.9,2.7-9.9c1.8-3,4.2-5.4,7.4-7.2c3.1-1.8,6.6-2.7,10.3-2.7c4.6,0,8.4,1.6,11.4,4.8
			c3,3.2,4.6,7.3,4.6,12.1c0,3.6-0.9,6.9-2.7,9.9c-1.8,3-4.2,5.4-7.2,7.1C1012.8,82,1009.5,82.8,1006,82.8z"/>
		<path class="st0" d="M1108.6,264.8c-11.7,0-22-2.7-30.9-8.1c-8.9-5.4-15.8-13.1-20.9-23c-5-9.9-7.5-21.3-7.5-34.3
			c0-18,3.6-34.4,10.9-49.4s17.3-26.8,29.9-35.6c12.6-8.8,26.5-13.2,41.5-13.2c17.7,0,32.6,4.3,44.5,12.8l-7.5,41h-3.1
			c-0.8-14.6-4.5-25.8-11-33.7c-6.5-7.8-15.5-11.7-27-11.7c-8.8,0-17,3.3-24.6,9.9c-7.6,6.6-13.8,15.9-18.5,27.9
			c-4.7,12-7,25.9-7,41.5c0,18,3.5,32,10.4,42s17.1,15,30.7,15c8.3,0,16.3-2.2,24-6.8c7.6-4.5,14.2-11.5,19.9-20.9h3.4
			c-3.3,12.3-10.1,23.1-20.2,32.4C1135.6,260.1,1123.2,264.7,1108.6,264.8z"/>
		<path class="st0" d="M1236.7,264.6c-14.6,0-25.8-5.3-33.4-16c-7.6-10.6-11.5-24.4-11.5-41.3c0-16.9,3.6-33.6,10.8-50.1
			c7.2-16.5,17.4-30,30.5-40.4s28.2-15.7,45.1-15.7c7.3,0,14.1,1.3,20.4,3.9c6.3,2.6,11.7,6.4,16.3,11.4l26-15.4h1.6l-24.9,130
			c-1.5,7.1-1.8,12.1-1.1,15.1c0.7,2.9,2.7,4.4,5.8,4.4c3.6,0,7.2-2.9,11-8.8c3.7-5.8,7.5-14.2,11.3-25.1h5.3
			c-5.2,18.4-10.7,31-16.4,37.8c-5.7,6.8-12.3,10.2-19.6,10.2c-6.7,0-12.1-2.2-16.3-6.7c-4.2-4.5-6.3-11.4-6.3-20.8
			c0-4.4,0.4-8.8,1.2-13.2l2.2-12.2h-1.6c-5.8,16.5-13.4,29.5-22.8,38.9C1260.9,259.9,1249.7,264.6,1236.7,264.6z M1247.4,245.8
			c12.3,0,23.2-8.6,32.7-25.7c9.5-17.1,18.2-40.4,26.1-69.9c0.8-9,0-16.7-2.4-23c-2.4-6.4-5.8-11.2-10-14.4
			c-4.3-3.2-8.9-4.9-13.9-4.8c-10.9,0-20.8,5.2-29.8,15.5c-9,10.3-16,23.1-21,38.4c-5,15.2-7.5,29.9-7.5,43.9
			c0,12.1,2.2,21.8,6.4,29.1C1232.4,242.2,1238.8,245.8,1247.4,245.8z"/>
		<path class="st0" d="M1492.1,264.5c-6.3,0-11.4-2.1-15.4-6.4c-4-4.3-6-10.7-6-19.3c0-5.4,0.7-11.1,2.2-16.9l16.9-71.1
			c2.3-9.4,1.9-16.8-1.3-22.1c-3.1-5.3-8.1-8-14.7-8c-7.1,0-14.2,2.7-21.2,8.2c-7,5.4-13.9,14.3-20.8,26.5
			c-6.9,12.2-13.4,28.3-19.4,48.1l-11.2,57.7l-27,0l20.6-107.2c1.5-8.4,2.2-14.7,2.3-19.1c0.1-4.4-0.5-7.7-1.9-10
			c-1.4-2.3-3.5-4.7-6.4-7.2l0.3-1.6l41.3-15.1h1.6l-11.2,58.6h1.6c7.3-18.6,16.2-33,26.6-43.3c10.4-10.2,21.9-15.4,34.4-15.4
			c10.2,0,18.5,2.9,24.9,8.8c6.4,5.8,9.6,15.1,9.6,27.9c0,7.3-1,15.1-3.1,23.5l-17.8,74.3c-1.2,5.4-1.3,9.3-0.3,11.6
			c1,2.3,2.8,3.4,5.3,3.4c4,0,7.7-2.8,11.3-8.5c3.6-5.7,7.4-14.1,11.6-25.4h5.3c-3.7,13-7.6,22.9-11.6,29.8c-4,6.9-8,11.6-12.2,14.3
			C1502.3,263.1,1497.5,264.5,1492.1,264.5z"/>
		<path class="st0" d="M1600.8,264.4c-14.6,0-25.8-5.3-33.4-16c-7.6-10.6-11.5-24.4-11.5-41.3s3.6-33.6,10.8-50.1
			c7.2-16.5,17.3-30,30.4-40.4c13-10.4,27.9-15.7,44.6-15.7c6.9,0,13.1,1.1,18.6,3.4c5.5,2.3,10.6,5.7,15.2,10.3l6.3-34.1
			c1.5-7.9,2.1-14.2,2-18.6s-0.8-7.9-2.2-10.3c-1.4-2.4-3.5-4.9-6.4-7.4l0.3-1.6l41.3-15.1h1.6l-36.5,203.4
			c-1.2,7.1-1.5,12.1-0.8,15.1c0.7,2.9,2.7,4.4,5.8,4.4c3.6,0,7.2-2.9,11-8.8c3.7-5.8,7.5-14.2,11.3-25.1h5.3
			c-5.2,18.4-10.7,31-16.6,37.8c-5.8,6.8-12.3,10.2-19.4,10.2c-6.7,0-12.2-2.2-16.4-6.7c-4.3-4.5-6.4-11.4-6.4-20.8
			c0-4.4,0.4-8.8,1.2-13.2l2.2-12.2h-1.6c-5.6,16.5-13.3,29.5-22.8,38.9C1625,259.7,1613.8,264.4,1600.8,264.4z M1611.4,245.6
			c12.3,0,23.4-8.6,33.2-25.9c9.8-17.2,18.6-40.5,26.3-69.7c0.8-9,0-16.7-2.5-23c-2.5-6.4-6-11.2-10.3-14.4
			c-4.4-3.2-9.1-4.9-14.1-4.8c-10.9,0-20.8,5.2-29.8,15.5c-9,10.3-16,23.1-21,38.4c-5,15.2-7.5,29.9-7.5,43.9
			c0,12.1,2.2,21.8,6.4,29.1C1596.5,241.9,1602.9,245.6,1611.4,245.6z"/>
		<path class="st0" d="M1798.5,264.2c-12.5,0-23.4-2.7-32.6-8.1c-9.2-5.4-16.2-13-21-22.9c-4.8-9.8-7.2-21.2-7.2-34.1
			c0-18.2,3.6-34.8,10.9-49.8c7.3-15.1,17.1-26.9,29.6-35.6c12.4-8.7,25.7-13,40-13c12.5,0,23.4,2.7,32.6,8.1
			c9.2,5.4,16.2,13,21,22.9c4.8,9.8,7.2,21.2,7.2,34.1c0,18.2-3.6,34.8-10.9,49.8c-7.3,15.1-17.2,26.9-29.6,35.6
			C1826,259.9,1812.7,264.2,1798.5,264.2z M1799.2,257.6c9.2,0,17.5-4.6,25-13.8c7.5-9.2,13.5-21.3,17.8-36.4
			c4.4-15.1,6.6-31,6.6-47.9c0-17.7-2.7-30.9-8.2-39.5c-5.4-8.6-13.1-12.8-22.9-12.8c-9.2,0-17.5,4.6-25,13.8s-13.4,21.3-17.8,36.4
			c-4.4,15.1-6.6,31-6.6,47.9c0,17.7,2.8,30.9,8.3,39.5C1782,253.4,1789.5,257.7,1799.2,257.6z"/>
	</g>
	<path class="st0" d="M176.4,43.4C101.6,43.4,41,104,41,178.7c0,74.7,60.6,135.4,135.4,135.4c74.7,0,135.4-60.6,135.4-135.4
		C311.7,104,251.1,43.4,176.4,43.4z M176.4,150.9c10.9,0,19.7,8.8,19.7,19.7c0,10.9-8.8,19.7-19.7,19.7c-10.9,0-19.7-8.8-19.7-19.7
		C156.7,159.7,165.5,150.9,176.4,150.9z M176.4,258.1c-49.7,0-89-49.7-97.3-105.6c-0.4-2.1,9.9-2.1,10.4,0
		c10.4,39.4,37.3,76.6,87,76.6s76.6-37.3,87-76.6c0.4-2.1,10.8-2.1,10.4,0C265.4,208.4,226.1,258.1,176.4,258.1z"/>
</g>
</svg>
